<svg xmlns="http://www.w3.org/2000/svg" xmlns:xlink="http://www.w3.org/1999/xlink" viewBox="0 0 1200 460" width="1200" height="460" role="img" aria-label="Musubi, 結び: persistent memory for AI agents. Your agent saves what it learns, Musubi persists it on your local disk and gives back only what's relevant and only what's new.">
<!-- 結び: contornos de Noto Sans JP (SIL Open Font License 1.1), convertidos a trazos -->
<title>Musubi</title><desc>Musubi, 結び: persistent memory for AI agents. Your agent saves what it learns, Musubi persists it on your local disk and gives back only what's relevant and only what's new.</desc>
<style>text{font-family:-apple-system,'Segoe UI',system-ui,'Helvetica Neue',Arial,sans-serif}.mono{font-family:ui-monospace,'SF Mono','Cascadia Code',Menlo,Consolas,monospace}@keyframes fadeIn{from{opacity:0}}@keyframes rise{from{opacity:0;transform:translateY(14px)}}@keyframes wdraw{from{stroke-dashoffset:110}}@keyframes ddraw{from{stroke-dashoffset:110}}@keyframes settle{0%{transform:scale(.9)}55%{transform:scale(1.035)}100%{transform:scale(1)}}@keyframes cordlife{0%{opacity:0;stroke-dashoffset:100}1%{opacity:1}64.0%{opacity:1;stroke-dashoffset:0}73.0%{opacity:1}100%{opacity:0;stroke-dashoffset:0}}@keyframes spark{0%{opacity:0;stroke-dashoffset:0}1%{opacity:1}64.0%{opacity:1;stroke-dashoffset:-100}67.0%{opacity:0;stroke-dashoffset:-100}100%{opacity:0}}@keyframes burst{0%{opacity:0;transform:scale(.5)}22%{opacity:1}100%{opacity:0;transform:scale(1.55)}}@keyframes bob{0%,100%{transform:translateY(0)}50%{transform:translateY(-3px)}}@keyframes breathe{0%,100%{opacity:.82}50%{opacity:1}}@keyframes drift{0%{opacity:0;transform:translateY(0)}20%{opacity:.8}80%{opacity:.8}100%{opacity:0;transform:translateY(-38px)}}@keyframes blink{0%,49%{opacity:1}50%,100%{opacity:.15}}@keyframes pktL{0%{stroke-dashoffset:14}17.14%{stroke-dashoffset:-102}100%{stroke-dashoffset:-102}}@keyframes pktR{0%,21.43%{stroke-dashoffset:14}38.57%{stroke-dashoffset:-102}100%{stroke-dashoffset:-102}}@keyframes pktB{0%,47.14%{stroke-dashoffset:14}81.43%{stroke-dashoffset:-102}100%{stroke-dashoffset:-102}}@keyframes pulse{0%,15.00%{transform:scale(1)}19.29%{transform:scale(1.045)}27.14%{transform:scale(1)}100%{transform:scale(1)}}@keyframes glint{0%,16.43%{stroke-dashoffset:13}36.43%{stroke-dashoffset:-102}100%{stroke-dashoffset:-102}}@keyframes ring{0%,17.14%{opacity:0;transform:scale(.55)}18.57%{opacity:.5}32.86%{opacity:0;transform:scale(1.9)}100%{opacity:0}}@keyframes slab0{0%,38.57%{opacity:0}42.14%{opacity:.75}51.43%{opacity:0}100%{opacity:0}}@keyframes slab1{0%,41.43%{opacity:0}45.00%{opacity:.75}54.29%{opacity:0}100%{opacity:0}}@keyframes slab2{0%,44.29%{opacity:0}47.86%{opacity:.75}57.14%{opacity:0}100%{opacity:0}}@keyframes backglow{0%,52.86%{opacity:0}62.86%{opacity:1}77.14%{opacity:0}100%{opacity:0}}@keyframes recv{0%,77.14%{opacity:0}82.14%{opacity:.9}91.43%{opacity:0}100%{opacity:0}}.bgfx{animation:fadeIn 1.4s ease-out 0.0s backwards}.cord{opacity:0;stroke-dasharray:100 200;animation:cordlife 2.5s linear 0.2s both}.spark{opacity:0;stroke-dasharray:.01 200;animation:spark 2.5s linear 0.2s both}.tube{animation:fadeIn .7s ease-out 1.7s backwards}.settle{transform-origin:600px 250px;animation:settle 1s cubic-bezier(.3,.7,.3,1) 1.7s backwards}.glowk{animation:fadeIn .9s ease-out 1.7s backwards,breathe 7s ease-in-out 2.7s infinite}.burst{opacity:0;transform-origin:600px 250px;animation:burst 1.4s ease-out 1.7s both}.bob{animation:bob 7s ease-in-out 2.7s infinite}.pulse{transform-origin:600px 250px;animation:pulse 7.0s ease-in-out 5.2s infinite}.ring{opacity:0;transform-origin:600px 250px;animation:ring 7.0s ease-out 5.2s infinite}.glint{stroke-dasharray:7 200;stroke-dashoffset:-102;animation:glint 7.0s linear 5.2s infinite}.wl{stroke-dasharray:100 200}.wl0{animation:wdraw .7s cubic-bezier(.65,0,.35,1) 1.90s backwards}.wl1{animation:wdraw .7s cubic-bezier(.65,0,.35,1) 2.02s backwards}.wl2{animation:wdraw .7s cubic-bezier(.65,0,.35,1) 2.14s backwards}.wl3{animation:wdraw .7s cubic-bezier(.65,0,.35,1) 2.26s backwards}.wl4{animation:wdraw .7s cubic-bezier(.65,0,.35,1) 2.38s backwards}.wl5{animation:wdraw .7s cubic-bezier(.65,0,.35,1) 2.50s backwards}.tag{animation:rise .9s cubic-bezier(.2,.7,.2,1) 2.8s backwards}.seal{animation:fadeIn 1s ease-out 3.1s backwards}.card1{animation:rise .9s cubic-bezier(.2,.7,.2,1) 2.9s backwards}.card2{animation:rise .9s cubic-bezier(.2,.7,.2,1) 3.1s backwards}.conn{animation:fadeIn .8s ease-out 3.5s backwards}.lab{animation:fadeIn .8s ease-out 3.9s backwards}.back{stroke-dasharray:100 200;animation:ddraw 1.3s cubic-bezier(.65,0,.35,1) 4.0s backwards}.backfx{animation:fadeIn .8s ease-out 5.1s backwards}.foot{animation:fadeIn 1s ease-out 4.6s backwards}.pkt{stroke-dasharray:12 200;stroke-dashoffset:-102}.pktL{animation:pktL 7.0s linear 5.2s infinite}.pktR{animation:pktR 7.0s linear 5.2s infinite}.pktB{animation:pktB 7.0s linear 5.2s infinite}.slab0{opacity:0;animation:slab0 7.0s ease-in-out 5.2s infinite}.slab1{opacity:0;animation:slab1 7.0s ease-in-out 5.2s infinite}.slab2{opacity:0;animation:slab2 7.0s ease-in-out 5.2s infinite}.backglow{opacity:0;animation:backglow 7.0s ease-in-out 5.2s infinite}.recv{opacity:0;animation:recv 7.0s ease-in-out 5.2s infinite}.cur{animation:blink 1.1s steps(1) 3.9s infinite}@media (prefers-reduced-motion:reduce){*{animation:none!important}}</style>
<defs>
<linearGradient id="kg" gradientUnits="userSpaceOnUse" x1="504" y1="164.8" x2="696" y2="335.2"><stop offset="0" stop-color="#2dd4bf"/><stop offset=".5" stop-color="#a78bfa"/><stop offset="1" stop-color="#4ade80"/></linearGradient>
<radialGradient id="bloomA"><stop offset="0" stop-color="#6366F1" stop-opacity=".36"/><stop offset=".38" stop-color="#6366F1" stop-opacity=".14"/><stop offset="1" stop-color="#6366F1" stop-opacity="0"/></radialGradient>
<radialGradient id="flash"><stop offset="0" stop-color="#818CF8" stop-opacity=".62"/><stop offset=".45" stop-color="#6366F1" stop-opacity=".2"/><stop offset="1" stop-color="#6366F1" stop-opacity="0"/></radialGradient>
<radialGradient id="bloomB"><stop offset="0" stop-color="#a78bfa" stop-opacity=".26"/><stop offset="1" stop-color="#a78bfa" stop-opacity="0"/></radialGradient>
<radialGradient id="topl" cx=".5" cy="0" r=".9"><stop offset="0" stop-color="#818CF8" stop-opacity=".16"/><stop offset="1" stop-color="#818CF8" stop-opacity="0"/></radialGradient>
<radialGradient id="vig" cx=".5" cy=".46" r=".78"><stop offset=".55" stop-color="#03050C" stop-opacity="0"/><stop offset="1" stop-color="#03050C" stop-opacity=".62"/></radialGradient>
<radialGradient id="gridfade" gradientUnits="userSpaceOnUse" cx="600" cy="250" r="600"><stop offset="0" stop-color="#2A335C" stop-opacity=".62"/><stop offset=".55" stop-color="#2A335C" stop-opacity=".26"/><stop offset="1" stop-color="#2A335C" stop-opacity="0"/></radialGradient>
<radialGradient id="floor"><stop offset="0" stop-color="#6366F1" stop-opacity=".5"/><stop offset="1" stop-color="#6366F1" stop-opacity="0"/></radialGradient>
<linearGradient id="card" x1="0" y1="0" x2="0" y2="1"><stop offset="0" stop-color="#182042"/><stop offset="1" stop-color="#121734"/></linearGradient>
<linearGradient id="sheen" x1="0" y1="0" x2="1" y2="0"><stop offset="0" stop-color="#fff" stop-opacity="0"/><stop offset=".5" stop-color="#fff" stop-opacity=".22"/><stop offset="1" stop-color="#fff" stop-opacity="0"/></linearGradient>
<linearGradient id="cordg" gradientUnits="userSpaceOnUse" x1="348" y1="0" x2="852" y2="0"><stop offset="0" stop-color="#6366F1" stop-opacity=".55"/><stop offset=".5" stop-color="#6366F1" stop-opacity=".18"/><stop offset="1" stop-color="#6366F1" stop-opacity=".55"/></linearGradient>
<clipPath id="cl0"><circle cx="643.6" cy="240.5" r="21"/></clipPath>
<clipPath id="cl1"><circle cx="556.4" cy="240.5" r="21"/></clipPath>
<clipPath id="cl2"><circle cx="600" cy="315.9" r="21"/></clipPath>
<path id="kn" pathLength="100" d="M600,232 L608.9,232.2 L617.5,233.2 L625.9,234.9 L634.3,237 L642.2,239.9 L649.9,243.3 L657.1,247.1 L663.6,251.4 L669.6,256 L674.9,261 L679.7,266.6 L683.8,272.1 L686.9,277.8 L689.3,283.6 L691,289.4 L691.9,295.1 L691.9,300.6 L691.2,306.2 L689.5,311.2 L687.4,316 L684.2,320.3 L680.6,324.2 L676.3,327.5 L671.5,330.4 L666,332.6 L660.2,334 L654,334.7 L647.3,335 L640.6,334.2 L633.6,332.8 L626.6,330.6 L619.4,327.8 L612.5,324.2 L605.5,320.1 L598.8,315 L592.6,309.5 L586.3,303.5 L580.8,296.8 L575.5,289.8 L571,282.4 L566.9,274.7 L563.3,266.6 L560.4,258.4 L558.2,250.2 L556.6,241.8 L555.6,233.7 L555.4,225.5 L555.8,217.6 L556.8,210.2 L558.7,203 L560.9,196.2 L563.8,190 L567.1,184.2 L571,179.2 L575,174.9 L579.6,171.3 L584.4,168.4 L589.4,166.5 L594.7,165.3 L600,164.8 L605.3,165.3 L610.6,166.5 L615.6,168.4 L620.4,171.3 L625,174.9 L629,179.2 L632.9,184.2 L636.2,190 L639.1,196.2 L641.3,203 L643.2,210.2 L644.2,217.6 L644.6,225.5 L644.4,233.7 L643.4,241.8 L641.8,250.2 L639.6,258.4 L636.7,266.6 L633.1,274.7 L629,282.4 L624.5,289.8 L619.2,296.8 L613.7,303.5 L607.4,309.5 L601.2,315 L594.5,320.1 L587.5,324.2 L580.6,327.8 L573.4,330.6 L566.4,332.8 L559.4,334.2 L552.7,335 L546,334.7 L539.8,334 L534,332.6 L528.5,330.4 L523.7,327.5 L519.4,324.2 L515.8,320.3 L512.6,316 L510.5,311.2 L508.8,306.2 L508.1,300.6 L508.1,295.1 L509,289.4 L510.7,283.6 L513.1,277.8 L516.2,272.1 L520.3,266.6 L525.1,261 L530.4,256 L536.4,251.4 L542.9,247.1 L550.1,243.3 L557.8,239.9 L565.7,237 L574.1,234.9 L582.5,233.2 L591.1,232.2 Z"/>
<path id="pl" pathLength="100" d="M348,254 H524"/>
<path id="pr" pathLength="100" d="M676,254 H852"/>
<path id="pb" pathLength="100" d="M1002,316 V360 Q1002,396 966,396 H234 Q198,396 198,360 V324"/>
</defs>
<rect width="1200" height="460" rx="8" fill="#0C1020"/>
<g class="bgfx">
<rect width="1200" height="460" rx="8" fill="url(#topl)"/>
<path d="M0,0V460M40,0V460M80,0V460M120,0V460M160,0V460M200,0V460M240,0V460M280,0V460M320,0V460M360,0V460M400,0V460M440,0V460M480,0V460M520,0V460M560,0V460M600,0V460M640,0V460M680,0V460M720,0V460M760,0V460M800,0V460M840,0V460M880,0V460M920,0V460M960,0V460M1000,0V460M1040,0V460M1080,0V460M1120,0V460M1160,0V460M1200,0V460M0,10H1200M0,50H1200M0,90H1200M0,130H1200M0,170H1200M0,210H1200M0,250H1200M0,290H1200M0,330H1200M0,370H1200M0,410H1200M0,450H1200" stroke="url(#gridfade)" stroke-width="1" fill="none"/>
<circle cx="600" cy="250" r="440" fill="url(#bloomA)"/>
<circle cx="600" cy="250" r="190" fill="url(#bloomB)"/>
</g>
<circle cx="413" cy="116" r="1.6" fill="#E9ECF7" fill-opacity=".38" opacity="0" style="animation:drift 9.4s ease-in-out 8.1s infinite"/>
<circle cx="170" cy="276" r="1.6" fill="#E9ECF7" fill-opacity=".38" opacity="0" style="animation:drift 10.7s ease-in-out 4.4s infinite"/>
<circle cx="513" cy="149" r="1.6" fill="#E9ECF7" fill-opacity=".38" opacity="0" style="animation:drift 12.4s ease-in-out 8.1s infinite"/>
<circle cx="201" cy="143" r="1.6" fill="#E9ECF7" fill-opacity=".38" opacity="0" style="animation:drift 13.7s ease-in-out 4.3s infinite"/>
<circle cx="691" cy="78" r="0.9" fill="#E9ECF7" fill-opacity=".38" opacity="0" style="animation:drift 9.4s ease-in-out 8.3s infinite"/>
<circle cx="377" cy="113" r="0.9" fill="#E9ECF7" fill-opacity=".38" opacity="0" style="animation:drift 13.6s ease-in-out 6.8s infinite"/>
<circle cx="793" cy="98" r="1.6" fill="#E9ECF7" fill-opacity=".38" opacity="0" style="animation:drift 14.1s ease-in-out 5.9s infinite"/>
<circle cx="651" cy="83" r="0.9" fill="#E9ECF7" fill-opacity=".38" opacity="0" style="animation:drift 14.0s ease-in-out 6.5s infinite"/>
<circle cx="634" cy="348" r="1.2" fill="#E9ECF7" fill-opacity=".38" opacity="0" style="animation:drift 13.7s ease-in-out 6.3s infinite"/>
<circle cx="388" cy="354" r="1.6" fill="#E9ECF7" fill-opacity=".38" opacity="0" style="animation:drift 15.2s ease-in-out 4.4s infinite"/>
<ellipse cx="600" cy="350" rx="118" ry="11" fill="url(#floor)"/>
<g class="glowk" fill="none" stroke-linecap="round" stroke-linejoin="round">
<use href="#kn" stroke="url(#kg)" stroke-opacity="0.05" stroke-width="49.0"/>
<use href="#kn" stroke="url(#kg)" stroke-opacity="0.07" stroke-width="37.0"/>
<use href="#kn" stroke="url(#kg)" stroke-opacity="0.12" stroke-width="26.0"/>
<use href="#kn" y="12" stroke="#03050C" stroke-opacity=".30" stroke-width="23.0"/>
</g>
<g class="conn" fill="none" stroke-linecap="round">
<use href="#pl" stroke="url(#cordg)" stroke-width="2"/><use href="#pr" stroke="url(#cordg)" stroke-width="2"/>
<circle cx="524" cy="254" r="3.4" fill="#818CF8" fill-opacity=".8"/><circle cx="676" cy="254" r="3.4" fill="#818CF8" fill-opacity=".8"/>
</g>
<g fill="none" stroke-linecap="round">
<use href="#pl" class="pkt pktL" stroke="#818CF8" stroke-width="5"/>
<use href="#pr" class="pkt pktR" stroke="#818CF8" stroke-width="5"/>
</g>
<g fill="none" stroke-linecap="round" stroke-linejoin="round">
<use href="#pb" class="back" stroke="#6366F1" stroke-width="2.2"/>
<use href="#pb" class="pkt pktB" stroke="#fff" stroke-opacity=".9" stroke-width="5"/>
</g>
<path class="backfx" d="M191,333 L198,323 L205,333" fill="none" stroke="#6366F1" stroke-width="2.2" stroke-linecap="round" stroke-linejoin="round"/>
<g class="card1"><rect x="40" y="194" width="316" height="144" rx="16" fill="#03050C" fill-opacity="0.06"/><rect x="43" y="190" width="310" height="138" rx="13" fill="#03050C" fill-opacity="0.09"/><rect x="45.5" y="187.5" width="305.0" height="133.0" rx="10.5" fill="#03050C" fill-opacity="0.13"/><rect x="47" y="185" width="302" height="130" rx="9" fill="#03050C" fill-opacity="0.2"/><rect x="48" y="184" width="300" height="128" rx="8" fill="url(#card)" stroke="#2A335C"/><rect x="58" y="184.5" width="280" height="1" fill="url(#sheen)"/>
<rect x="72" y="214" width="46" height="38" rx="6" fill="#0C1020" fill-opacity=".7" stroke="#98A0C0" stroke-width="1.8"/>
<path d="M73,224 H117" stroke="#98A0C0" stroke-opacity=".5" stroke-width="1.4"/>
<circle cx="80" cy="219" r="1.5" fill="#98A0C0" fill-opacity=".7"/><circle cx="86" cy="219" r="1.5" fill="#98A0C0" fill-opacity=".7"/>
<path d="M81,233 L88,238 L81,243" fill="none" stroke="#E9ECF7" stroke-width="2" stroke-linecap="round" stroke-linejoin="round"/>
<path class="cur" d="M93,244 H103" stroke="#818CF8" stroke-width="2.4" stroke-linecap="round"/>
<text x="138" y="230" font-size="21" font-weight="600" fill="#E9ECF7">Your agent</text>
<text x="138" y="256" font-size="16" fill="#98A0C0">Claude Code · Cursor</text>
<text class="mono" x="138" y="282" font-size="13" fill="#98A0C0" fill-opacity=".8">MCP · hooks (Claude)</text>
<rect class="recv" x="48" y="184" width="300" height="128" rx="8" fill="#6366F1" fill-opacity=".10" stroke="#818CF8" stroke-width="1.5"/>
</g>
<g class="card2"><rect x="844" y="194" width="316" height="144" rx="16" fill="#03050C" fill-opacity="0.06"/><rect x="847" y="190" width="310" height="138" rx="13" fill="#03050C" fill-opacity="0.09"/><rect x="849.5" y="187.5" width="305.0" height="133.0" rx="10.5" fill="#03050C" fill-opacity="0.13"/><rect x="851" y="185" width="302" height="130" rx="9" fill="#03050C" fill-opacity="0.2"/><rect x="852" y="184" width="300" height="128" rx="8" fill="url(#card)" stroke="#2A335C"/><rect x="862" y="184.5" width="280" height="1" fill="url(#sheen)"/>
<path class="slab0" d="M876,220 A22,8 0 0 0 920,220 L920,233 A22,8 0 0 1 876,233 Z" fill="#6366F1" fill-opacity=".75"/>
<path class="slab1" d="M876,233 A22,8 0 0 0 920,233 L920,246 A22,8 0 0 1 876,246 Z" fill="#6366F1" fill-opacity=".75"/>
<path class="slab2" d="M876,246 A22,8 0 0 0 920,246 L920,259 A22,8 0 0 1 876,259 Z" fill="#6366F1" fill-opacity=".75"/>
<g fill="none" stroke="#98A0C0" stroke-width="1.8" stroke-linecap="round">
<ellipse cx="898" cy="220" rx="22" ry="8" fill="#0C1020" fill-opacity=".7"/>
<path d="M876,220 V259 A22,8 0 0 0 920,259 V220"/>
<path d="M876,233 A22,8 0 0 0 920,233" stroke-opacity=".6"/>
<path d="M876,246 A22,8 0 0 0 920,246" stroke-opacity=".6"/>
</g>
<text x="942" y="230" font-size="21" font-weight="600" fill="#E9ECF7">Your disk</text>
<text x="942" y="256" font-size="16" fill="#98A0C0">Local SQLite, in .musubi/</text>
<text class="mono" x="942" y="282" font-size="13" fill="#98A0C0" fill-opacity=".8">nothing external required</text>
</g>
<g class="lab" font-size="15.5" fill="#98A0C0" text-anchor="middle">
<text x="436" y="238">saves what it learns</text>
<text x="764" y="238">persists</text>
</g>
<g class="backfx">
<rect x="402" y="379" width="396" height="34" rx="17" fill="#121734" stroke="#6366F1" stroke-opacity=".7"/>
<rect class="backglow" x="402" y="379" width="396" height="34" rx="17" fill="#6366F1" fill-opacity=".22" stroke="#818CF8"/>
<text x="600" y="401.5" font-size="16" font-weight="600" fill="#818CF8" text-anchor="middle">only what's relevant, only what's new</text>
</g>
<use href="#kn" class="cord" fill="none" stroke="url(#kg)" stroke-width="3.4" stroke-linecap="round" stroke-linejoin="round"/>
<use href="#kn" class="spark" fill="none" stroke="#fff" stroke-width="9" stroke-linecap="round"/>
<circle class="burst" cx="600" cy="250" r="175" fill="url(#flash)"/>
<g class="ring" fill="none" stroke="#818CF8"><circle cx="600" cy="250" r="100" stroke-opacity=".10" stroke-width="14"/><circle cx="600" cy="250" r="100" stroke-opacity=".5" stroke-width="1.3"/></g>
<g class="tube"><g class="settle"><g class="bob"><g class="pulse">
<g fill="none" stroke-linecap="round" stroke-linejoin="round"><use href="#kn" stroke="#070A18" stroke-opacity=".95" stroke-width="14.6" x="0" y="0"/><use href="#kn" stroke="url(#kg)" stroke-width="11.0" x="0" y="0"/><use href="#kn" stroke="#060818" stroke-opacity=".30" stroke-width="5.5" x="2.2" y="2.9"/><use href="#kn" stroke="#fff" stroke-opacity=".18" stroke-width="5.1" x="-1.1" y="-1.6"/><use href="#kn" stroke="#fff" stroke-opacity=".8" stroke-width="1.6" x="-2" y="-2.6"/></g>
<g fill="none" stroke-linecap="butt" stroke-linejoin="round">
<g clip-path="url(#cl0)"><path d="M609.7,232.3 L612.2,232.6 L614.7,232.9 L617.2,233.2 L619.6,233.6 L622.1,234.1 L624.5,234.6 L627,235.1 L629.4,235.8 L631.8,236.4 L634.2,237 L636.6,237.9 L638.9,238.7 L641.3,239.6 L643.6,240.5 L645.9,241.5 L648.2,242.5 L650.4,243.6 L652.7,244.7 L654.9,245.9 L657.1,247.1 L659.1,248.5 L661.2,249.9 L663.3,251.2 L665.3,252.7 L667.3,254.3 L669.3,255.8 L671.1,257.5 L672.9,259.2" stroke="#070A18" stroke-opacity=".95" stroke-width="14.6" transform="translate(0,0)"/><path d="M609.7,232.3 L612.2,232.6 L614.7,232.9 L617.2,233.2 L619.6,233.6 L622.1,234.1 L624.5,234.6 L627,235.1 L629.4,235.8 L631.8,236.4 L634.2,237 L636.6,237.9 L638.9,238.7 L641.3,239.6 L643.6,240.5 L645.9,241.5 L648.2,242.5 L650.4,243.6 L652.7,244.7 L654.9,245.9 L657.1,247.1 L659.1,248.5 L661.2,249.9 L663.3,251.2 L665.3,252.7 L667.3,254.3 L669.3,255.8 L671.1,257.5 L672.9,259.2" stroke="url(#kg)" stroke-width="11.0" transform="translate(0,0)"/><path d="M609.7,232.3 L612.2,232.6 L614.7,232.9 L617.2,233.2 L619.6,233.6 L622.1,234.1 L624.5,234.6 L627,235.1 L629.4,235.8 L631.8,236.4 L634.2,237 L636.6,237.9 L638.9,238.7 L641.3,239.6 L643.6,240.5 L645.9,241.5 L648.2,242.5 L650.4,243.6 L652.7,244.7 L654.9,245.9 L657.1,247.1 L659.1,248.5 L661.2,249.9 L663.3,251.2 L665.3,252.7 L667.3,254.3 L669.3,255.8 L671.1,257.5 L672.9,259.2" stroke="#060818" stroke-opacity=".30" stroke-width="5.5" transform="translate(2.2,2.9)"/><path d="M609.7,232.3 L612.2,232.6 L614.7,232.9 L617.2,233.2 L619.6,233.6 L622.1,234.1 L624.5,234.6 L627,235.1 L629.4,235.8 L631.8,236.4 L634.2,237 L636.6,237.9 L638.9,238.7 L641.3,239.6 L643.6,240.5 L645.9,241.5 L648.2,242.5 L650.4,243.6 L652.7,244.7 L654.9,245.9 L657.1,247.1 L659.1,248.5 L661.2,249.9 L663.3,251.2 L665.3,252.7 L667.3,254.3 L669.3,255.8 L671.1,257.5 L672.9,259.2" stroke="#fff" stroke-opacity=".18" stroke-width="5.1" transform="translate(-1.1,-1.6)"/><path d="M609.7,232.3 L612.2,232.6 L614.7,232.9 L617.2,233.2 L619.6,233.6 L622.1,234.1 L624.5,234.6 L627,235.1 L629.4,235.8 L631.8,236.4 L634.2,237 L636.6,237.9 L638.9,238.7 L641.3,239.6 L643.6,240.5 L645.9,241.5 L648.2,242.5 L650.4,243.6 L652.7,244.7 L654.9,245.9 L657.1,247.1 L659.1,248.5 L661.2,249.9 L663.3,251.2 L665.3,252.7 L667.3,254.3 L669.3,255.8 L671.1,257.5 L672.9,259.2" stroke="#fff" stroke-opacity=".8" stroke-width="1.6" transform="translate(-2,-2.6)"/></g>
<g clip-path="url(#cl1)"><path d="M566.5,273.9 L565.5,271.6 L564.5,269.3 L563.5,267 L562.6,264.7 L561.8,262.3 L561,260 L560.2,257.6 L559.5,255.2 L558.9,252.8 L558.3,250.3 L557.8,247.9 L557.3,245.4 L556.8,243 L556.4,240.5 L556.1,238 L555.8,235.5 L555.6,233.1 L555.5,230.6 L555.4,228.1 L555.4,225.6 L555.5,223.1 L555.7,220.6 L555.8,218.1 L556.1,215.6 L556.4,213.1 L556.7,210.6 L557.3,208.2 L558,205.8" stroke="#070A18" stroke-opacity=".95" stroke-width="14.6" transform="translate(0,0)"/><path d="M566.5,273.9 L565.5,271.6 L564.5,269.3 L563.5,267 L562.6,264.7 L561.8,262.3 L561,260 L560.2,257.6 L559.5,255.2 L558.9,252.8 L558.3,250.3 L557.8,247.9 L557.3,245.4 L556.8,243 L556.4,240.5 L556.1,238 L555.8,235.5 L555.6,233.1 L555.5,230.6 L555.4,228.1 L555.4,225.6 L555.5,223.1 L555.7,220.6 L555.8,218.1 L556.1,215.6 L556.4,213.1 L556.7,210.6 L557.3,208.2 L558,205.8" stroke="url(#kg)" stroke-width="11.0" transform="translate(0,0)"/><path d="M566.5,273.9 L565.5,271.6 L564.5,269.3 L563.5,267 L562.6,264.7 L561.8,262.3 L561,260 L560.2,257.6 L559.5,255.2 L558.9,252.8 L558.3,250.3 L557.8,247.9 L557.3,245.4 L556.8,243 L556.4,240.5 L556.1,238 L555.8,235.5 L555.6,233.1 L555.5,230.6 L555.4,228.1 L555.4,225.6 L555.5,223.1 L555.7,220.6 L555.8,218.1 L556.1,215.6 L556.4,213.1 L556.7,210.6 L557.3,208.2 L558,205.8" stroke="#060818" stroke-opacity=".30" stroke-width="5.5" transform="translate(2.2,2.9)"/><path d="M566.5,273.9 L565.5,271.6 L564.5,269.3 L563.5,267 L562.6,264.7 L561.8,262.3 L561,260 L560.2,257.6 L559.5,255.2 L558.9,252.8 L558.3,250.3 L557.8,247.9 L557.3,245.4 L556.8,243 L556.4,240.5 L556.1,238 L555.8,235.5 L555.6,233.1 L555.5,230.6 L555.4,228.1 L555.4,225.6 L555.5,223.1 L555.7,220.6 L555.8,218.1 L556.1,215.6 L556.4,213.1 L556.7,210.6 L557.3,208.2 L558,205.8" stroke="#fff" stroke-opacity=".18" stroke-width="5.1" transform="translate(-1.1,-1.6)"/><path d="M566.5,273.9 L565.5,271.6 L564.5,269.3 L563.5,267 L562.6,264.7 L561.8,262.3 L561,260 L560.2,257.6 L559.5,255.2 L558.9,252.8 L558.3,250.3 L557.8,247.9 L557.3,245.4 L556.8,243 L556.4,240.5 L556.1,238 L555.8,235.5 L555.6,233.1 L555.5,230.6 L555.4,228.1 L555.4,225.6 L555.5,223.1 L555.7,220.6 L555.8,218.1 L556.1,215.6 L556.4,213.1 L556.7,210.6 L557.3,208.2 L558,205.8" stroke="#fff" stroke-opacity=".8" stroke-width="1.6" transform="translate(-2,-2.6)"/></g>
<g clip-path="url(#cl2)"><path d="M623.9,290.6 L622.4,292.6 L620.9,294.6 L619.4,296.5 L617.8,298.5 L616.2,300.4 L614.6,302.4 L613,304.2 L611.2,305.9 L609.4,307.7 L607.6,309.4 L605.7,311.1 L603.8,312.7 L601.9,314.4 L600,315.9 L598,317.4 L596,318.9 L594,320.4 L591.8,321.6 L589.6,322.9 L587.5,324.2 L585.3,325.3 L583.1,326.5 L580.8,327.6 L578.5,328.6 L576.2,329.5 L573.9,330.4 L571.5,331.2 L569.1,332" stroke="#070A18" stroke-opacity=".95" stroke-width="14.6" transform="translate(0,0)"/><path d="M623.9,290.6 L622.4,292.6 L620.9,294.6 L619.4,296.5 L617.8,298.5 L616.2,300.4 L614.6,302.4 L613,304.2 L611.2,305.9 L609.4,307.7 L607.6,309.4 L605.7,311.1 L603.8,312.7 L601.9,314.4 L600,315.9 L598,317.4 L596,318.9 L594,320.4 L591.8,321.6 L589.6,322.9 L587.5,324.2 L585.3,325.3 L583.1,326.5 L580.8,327.6 L578.5,328.6 L576.2,329.5 L573.9,330.4 L571.5,331.2 L569.1,332" stroke="url(#kg)" stroke-width="11.0" transform="translate(0,0)"/><path d="M623.9,290.6 L622.4,292.6 L620.9,294.6 L619.4,296.5 L617.8,298.5 L616.2,300.4 L614.6,302.4 L613,304.2 L611.2,305.9 L609.4,307.7 L607.6,309.4 L605.7,311.1 L603.8,312.7 L601.9,314.4 L600,315.9 L598,317.4 L596,318.9 L594,320.4 L591.8,321.6 L589.6,322.9 L587.5,324.2 L585.3,325.3 L583.1,326.5 L580.8,327.6 L578.5,328.6 L576.2,329.5 L573.9,330.4 L571.5,331.2 L569.1,332" stroke="#060818" stroke-opacity=".30" stroke-width="5.5" transform="translate(2.2,2.9)"/><path d="M623.9,290.6 L622.4,292.6 L620.9,294.6 L619.4,296.5 L617.8,298.5 L616.2,300.4 L614.6,302.4 L613,304.2 L611.2,305.9 L609.4,307.7 L607.6,309.4 L605.7,311.1 L603.8,312.7 L601.9,314.4 L600,315.9 L598,317.4 L596,318.9 L594,320.4 L591.8,321.6 L589.6,322.9 L587.5,324.2 L585.3,325.3 L583.1,326.5 L580.8,327.6 L578.5,328.6 L576.2,329.5 L573.9,330.4 L571.5,331.2 L569.1,332" stroke="#fff" stroke-opacity=".18" stroke-width="5.1" transform="translate(-1.1,-1.6)"/><path d="M623.9,290.6 L622.4,292.6 L620.9,294.6 L619.4,296.5 L617.8,298.5 L616.2,300.4 L614.6,302.4 L613,304.2 L611.2,305.9 L609.4,307.7 L607.6,309.4 L605.7,311.1 L603.8,312.7 L601.9,314.4 L600,315.9 L598,317.4 L596,318.9 L594,320.4 L591.8,321.6 L589.6,322.9 L587.5,324.2 L585.3,325.3 L583.1,326.5 L580.8,327.6 L578.5,328.6 L576.2,329.5 L573.9,330.4 L571.5,331.2 L569.1,332" stroke="#fff" stroke-opacity=".8" stroke-width="1.6" transform="translate(-2,-2.6)"/></g>
</g>
<g fill="none" stroke-linecap="round" stroke-linejoin="round">
<use href="#kn" class="glint" stroke="#fff" stroke-opacity=".28" stroke-width="20.9" style="stroke-dasharray:11 200"/>
<use href="#kn" class="glint" stroke="#fff" stroke-opacity=".9" stroke-width="4.6"/>
</g>
</g></g></g></g>
<g fill="none" stroke-linecap="round" stroke-linejoin="round">
<path class="wl wl0" pathLength="100" transform="translate(437,40)" d="M0,50 L0,0 L18,29 L36,0 L36,50" stroke="#6366F1" stroke-opacity="0.07" stroke-width="21.5"/>
<path class="wl wl0" pathLength="100" transform="translate(437,40)" d="M0,50 L0,0 L18,29 L36,0 L36,50" stroke="#818CF8" stroke-opacity="0.11" stroke-width="13.5"/>
<path class="wl wl0" pathLength="100" transform="translate(437,40)" d="M0,50 L0,0 L18,29 L36,0 L36,50" stroke="#E9ECF7" stroke-opacity="1" stroke-width="6.5"/>
<path class="wl wl1" pathLength="100" transform="translate(495,40)" d="M0,0 L0,32 A18,18 0 0 0 36,32 L36,0" stroke="#6366F1" stroke-opacity="0.07" stroke-width="21.5"/>
<path class="wl wl1" pathLength="100" transform="translate(495,40)" d="M0,0 L0,32 A18,18 0 0 0 36,32 L36,0" stroke="#818CF8" stroke-opacity="0.11" stroke-width="13.5"/>
<path class="wl wl1" pathLength="100" transform="translate(495,40)" d="M0,0 L0,32 A18,18 0 0 0 36,32 L36,0" stroke="#E9ECF7" stroke-opacity="1" stroke-width="6.5"/>
<path class="wl wl2" pathLength="100" transform="translate(553,40)" d="M32.1,8.2 A15,12.5 0 1 0 18,25 A15,12.5 0 1 1 3.9,41.8" stroke="#6366F1" stroke-opacity="0.07" stroke-width="21.5"/>
<path class="wl wl2" pathLength="100" transform="translate(553,40)" d="M32.1,8.2 A15,12.5 0 1 0 18,25 A15,12.5 0 1 1 3.9,41.8" stroke="#818CF8" stroke-opacity="0.11" stroke-width="13.5"/>
<path class="wl wl2" pathLength="100" transform="translate(553,40)" d="M32.1,8.2 A15,12.5 0 1 0 18,25 A15,12.5 0 1 1 3.9,41.8" stroke="#E9ECF7" stroke-opacity="1" stroke-width="6.5"/>
<path class="wl wl3" pathLength="100" transform="translate(611,40)" d="M0,0 L0,32 A18,18 0 0 0 36,32 L36,0" stroke="#6366F1" stroke-opacity="0.07" stroke-width="21.5"/>
<path class="wl wl3" pathLength="100" transform="translate(611,40)" d="M0,0 L0,32 A18,18 0 0 0 36,32 L36,0" stroke="#818CF8" stroke-opacity="0.11" stroke-width="13.5"/>
<path class="wl wl3" pathLength="100" transform="translate(611,40)" d="M0,0 L0,32 A18,18 0 0 0 36,32 L36,0" stroke="#E9ECF7" stroke-opacity="1" stroke-width="6.5"/>
<path class="wl wl4" pathLength="100" transform="translate(669,40)" d="M0,0 L0,50 M0,0 L20,0 A12.5,12.5 0 0 1 20,25 L0,25 M0,25 L22,25 A12.5,12.5 0 0 1 22,50 L0,50" stroke="#6366F1" stroke-opacity="0.07" stroke-width="21.5"/>
<path class="wl wl4" pathLength="100" transform="translate(669,40)" d="M0,0 L0,50 M0,0 L20,0 A12.5,12.5 0 0 1 20,25 L0,25 M0,25 L22,25 A12.5,12.5 0 0 1 22,50 L0,50" stroke="#818CF8" stroke-opacity="0.11" stroke-width="13.5"/>
<path class="wl wl4" pathLength="100" transform="translate(669,40)" d="M0,0 L0,50 M0,0 L20,0 A12.5,12.5 0 0 1 20,25 L0,25 M0,25 L22,25 A12.5,12.5 0 0 1 22,50 L0,50" stroke="#E9ECF7" stroke-opacity="1" stroke-width="6.5"/>
<path class="wl wl5" pathLength="100" transform="translate(727,40)" d="M5,0 L31,0 M18,0 L18,50 M5,50 L31,50" stroke="#6366F1" stroke-opacity="0.07" stroke-width="21.5"/>
<path class="wl wl5" pathLength="100" transform="translate(727,40)" d="M5,0 L31,0 M18,0 L18,50 M5,50 L31,50" stroke="#818CF8" stroke-opacity="0.11" stroke-width="13.5"/>
<path class="wl wl5" pathLength="100" transform="translate(727,40)" d="M5,0 L31,0 M18,0 L18,50 M5,50 L31,50" stroke="#E9ECF7" stroke-opacity="1" stroke-width="6.5"/>
</g>
<text class="tag" x="600" y="130" font-size="22" fill="#98A0C0" text-anchor="middle">Persistent memory for AI agents</text>
<g class="seal"><rect x="1112" y="36" width="40" height="64" rx="6" fill="none" stroke="#2A335C" stroke-width="1.4"/>
<path transform="translate(1120.4,64.9) scale(0.02350,-0.02350)" fill="#98A0C0" fill-opacity=".9" d="M646 840H722V448H646ZM516 39H873V-29H516ZM414 698H961V630H414ZM446 480H938V410H446ZM478 302H910V-76H838V234H548V-79H478ZM195 840 262 814Q244 778 222 738Q200 698 179 662Q158 625 138 597L86 620Q105 649 125 688Q145 726 164 766Q183 807 195 840ZM316 726 382 698Q347 641 304 578Q262 516 219 457Q176 398 138 355L90 380Q119 414 150 457Q181 500 212 547Q242 594 269 640Q296 686 316 726ZM38 629 75 679Q103 656 132 628Q161 600 185 572Q209 545 222 523L182 465Q168 489 144 518Q121 547 93 576Q65 605 38 629ZM284 494 340 518Q362 485 382 448Q402 411 418 376Q433 341 440 313L381 285Q373 313 358 349Q343 385 324 423Q305 461 284 494ZM36 393Q103 395 196 398Q288 402 386 407L385 345Q292 339 202 334Q112 328 42 325ZM310 254 366 273Q388 227 408 173Q427 119 435 80L373 59Q366 99 348 154Q330 208 310 254ZM91 268 155 257Q145 186 127 118Q109 49 85 1Q78 6 68 11Q57 16 46 22Q34 27 25 30Q51 76 66 140Q82 203 91 268ZM206 364H274V-82H206Z"/>
<path transform="translate(1118.8,89.4) scale(0.02486,-0.02486)" fill="#98A0C0" fill-opacity=".9" d="M715 724Q723 678 736 625Q750 572 774 516Q797 460 834 405Q871 350 927 300L874 229Q819 289 776 359Q734 429 700 514Q666 599 636 701ZM90 670Q113 668 144 670Q177 672 222 676Q267 681 313 688Q359 696 398 704Q438 712 459 720L483 650Q473 647 457 642Q441 638 430 632Q411 618 384 590Q356 561 326 520Q297 480 272 430Q246 380 230 323Q214 266 214 205Q214 152 230 116Q245 79 272 58Q300 36 336 26Q371 16 409 16Q529 16 596 96Q662 177 676 322Q691 468 652 664L725 529Q741 443 742 358Q743 273 726 196Q709 120 670 61Q631 2 566 -32Q501 -66 407 -66Q348 -66 298 -50Q249 -33 212 -1Q176 31 156 78Q136 126 136 188Q136 258 152 320Q169 381 196 435Q222 489 255 534Q288 580 321 617Q296 614 264 610Q231 605 201 601Q171 597 152 595Q138 593 124 591Q111 589 96 586ZM802 780Q813 762 826 736Q838 711 850 686Q863 661 871 640L819 620Q810 643 798 669Q787 695 775 720Q763 744 752 763ZM904 819Q921 792 941 752Q961 711 975 679L923 660Q909 694 891 733Q873 772 855 800Z"/>
</g>
<text class="foot mono" x="600" y="436" font-size="14" fill="#98A0C0" fill-opacity=".85" text-anchor="middle">MCP server in Go · local-first · model-free · MIT</text>
<rect width="1200" height="460" rx="8" fill="url(#vig)" pointer-events="none"/>
<rect x=".5" y=".5" width="1199" height="459" rx="8" fill="none" stroke="#2A335C"/>
</svg>
